<svg width="599" height="60" viewBox="0 0 599 60" fill="none" xmlns="http://www.w3.org/2000/svg">
<path d="M0.8 0.999995H41.7V13.4H18.8V24.7H37.7V35.6H18.8V58H0.8V0.999995ZM101.077 0.999995V32.9C101.077 39.5 100.344 44.6667 98.8773 48.4C97.4773 52.0667 94.8107 54.7667 90.8773 56.5C86.944 58.2333 81.2107 59.1 73.6773 59.1C68.144 59.1 63.4773 58.5333 59.6773 57.4C55.8773 56.2 52.844 53.9667 50.5773 50.7C48.3773 47.4333 47.2773 42.8333 47.2773 36.9V0.999995H65.2773V33.1C65.2773 36.6333 65.444 39.3333 65.7773 41.2C66.1773 43 67.044 44.4 68.3773 45.4C69.7107 46.3333 71.744 46.8 74.4773 46.8C76.144 46.8 77.7107 46.6333 79.1773 46.3C80.644 45.9667 81.644 45.4667 82.1773 44.8C82.7773 44 83.0773 41.1 83.0773 36.1V0.999995H101.077ZM140.47 58H122.47V13.5H106.37V0.999995H156.57V13.5H140.47V58ZM215.628 0.999995V32.9C215.628 39.5 214.895 44.6667 213.428 48.4C212.028 52.0667 209.361 54.7667 205.428 56.5C201.495 58.2333 195.761 59.1 188.228 59.1C182.695 59.1 178.028 58.5333 174.228 57.4C170.428 56.2 167.395 53.9667 165.128 50.7C162.928 47.4333 161.828 42.8333 161.828 36.9V0.999995H179.828V33.1C179.828 36.6333 179.995 39.3333 180.328 41.2C180.728 43 181.595 44.4 182.928 45.4C184.261 46.3333 186.295 46.8 189.028 46.8C190.695 46.8 192.261 46.6333 193.728 46.3C195.195 45.9667 196.195 45.4667 196.728 44.8C197.328 44 197.628 41.1 197.628 36.1V0.999995H215.628ZM277.021 58H258.121L254.721 43.6C254.588 43.0667 254.354 42.1667 254.021 40.9C253.754 39.5667 253.421 38.6 253.021 38C252.621 37.3333 252.054 36.9 251.321 36.7C249.454 36.7667 246.721 36.8 243.121 36.8V58H225.121V1.5C233.188 0.9 240.721 0.6 247.721 0.6C254.054 0.6 259.188 1.13333 263.121 2.2C267.054 3.2 269.988 4.96666 271.921 7.5C273.921 9.96667 274.921 13.3667 274.921 17.7C274.921 21.7667 273.988 24.9667 272.121 27.3C270.254 29.5667 267.254 30.9333 263.121 31.4V32C265.454 32.2 267.388 32.9667 268.921 34.3C270.521 35.5667 271.588 37.2 272.121 39.2L277.021 58ZM243.121 25.5C243.721 25.5667 244.888 25.6 246.621 25.6C251.754 25.6 254.754 25.1667 255.621 24.3C256.421 23.5 256.821 21.6333 256.821 18.7C256.821 15.9667 256.088 14.1 254.621 13.1C253.221 12.1 250.888 11.6 247.621 11.6C246.888 11.6 245.388 11.6667 243.121 11.8V25.5ZM282.629 0.999995H324.129V13H300.629V23.4H320.429V34.2H300.629V45.8H324.029V58H282.629V0.999995Z" fill="white"/>
<path d="M348.162 16.4C348.162 17.8 348.862 18.9 350.262 19.7C351.728 20.5 353.995 21.3667 357.062 22.3C360.728 23.5 363.728 24.6667 366.062 25.8C368.462 26.9333 370.528 28.7 372.262 31.1C374.062 33.5 374.962 36.6333 374.962 40.5C374.962 52.9 366.895 59.1 350.762 59.1C348.095 59.1 344.828 58.8667 340.962 58.4C337.162 57.9333 333.695 57.3333 330.562 56.6C330.695 55.2 330.962 53.1667 331.362 50.5C331.828 47.7667 332.262 45.7333 332.662 44.4C334.995 44.7333 338.495 45.1333 343.162 45.6C347.895 46.0667 351.462 46.3 353.862 46.3C355.262 46.3 356.095 46.2 356.362 46C356.762 45.7333 357.062 45.3 357.262 44.7C357.528 44.0333 357.662 43.4667 357.662 43C357.662 41.6667 357.028 40.6667 355.762 40C354.495 39.2667 352.328 38.4 349.262 37.4C345.595 36.2667 342.562 35.1 340.162 33.9C337.762 32.7 335.662 30.8333 333.862 28.3C332.062 25.7667 331.162 22.4333 331.162 18.3C331.162 15.3667 331.828 12.5 333.162 9.7C334.495 6.83333 335.862 4.9 337.262 3.9C338.328 3.16666 340.528 2.46666 343.862 1.8C347.195 1.13333 350.328 0.799997 353.262 0.799997C360.728 0.799997 366.828 1.5 371.562 2.9C371.495 4.23333 371.262 6.06666 370.862 8.4C370.528 10.7333 370.162 12.8667 369.762 14.8L367.462 14.7C358.795 14.1 353.262 13.8 350.862 13.8C349.862 13.8 349.295 13.8333 349.162 13.9C348.895 14.0333 348.662 14.3333 348.462 14.8C348.262 15.2667 348.162 15.8 348.162 16.4ZM411.955 58H393.955V13.5H377.855V0.999995H428.055V13.5H411.955V58ZM462.516 45.5H445.916L442.916 58H424.516L442.916 0.999995H466.416L484.016 58H465.516L462.516 45.5ZM454.116 13.3L448.216 34.4H460.116L454.516 13.3H454.116ZM540.888 58H521.988L518.588 43.6C518.455 43.0667 518.222 42.1667 517.888 40.9C517.622 39.5667 517.288 38.6 516.888 38C516.488 37.3333 515.922 36.9 515.188 36.7C513.322 36.7667 510.588 36.8 506.988 36.8V58H488.988V1.5C497.055 0.9 504.588 0.6 511.588 0.6C517.922 0.6 523.055 1.13333 526.988 2.2C530.922 3.2 533.855 4.96666 535.788 7.5C537.788 9.96667 538.788 13.3667 538.788 17.7C538.788 21.7667 537.855 24.9667 535.988 27.3C534.122 29.5667 531.122 30.9333 526.988 31.4V32C529.322 32.2 531.255 32.9667 532.788 34.3C534.388 35.5667 535.455 37.2 535.988 39.2L540.888 58ZM506.988 25.5C507.588 25.5667 508.755 25.6 510.488 25.6C515.622 25.6 518.622 25.1667 519.488 24.3C520.288 23.5 520.688 21.6333 520.688 18.7C520.688 15.9667 519.955 14.1 518.488 13.1C517.088 12.1 514.755 11.6 511.488 11.6C510.755 11.6 509.255 11.6667 506.988 11.8V25.5ZM598.896 58H579.996L576.596 43.6C576.463 43.0667 576.229 42.1667 575.896 40.9C575.629 39.5667 575.296 38.6 574.896 38C574.496 37.3333 573.929 36.9 573.196 36.7C571.329 36.7667 568.596 36.8 564.996 36.8V58H546.996V1.5C555.063 0.9 562.596 0.6 569.596 0.6C575.929 0.6 581.063 1.13333 584.996 2.2C588.929 3.2 591.863 4.96666 593.796 7.5C595.796 9.96667 596.796 13.3667 596.796 17.7C596.796 21.7667 595.863 24.9667 593.996 27.3C592.129 29.5667 589.129 30.9333 584.996 31.4V32C587.329 32.2 589.263 32.9667 590.796 34.3C592.396 35.5667 593.463 37.2 593.996 39.2L598.896 58ZM564.996 25.5C565.596 25.5667 566.763 25.6 568.496 25.6C573.629 25.6 576.629 25.1667 577.496 24.3C578.296 23.5 578.696 21.6333 578.696 18.7C578.696 15.9667 577.963 14.1 576.496 13.1C575.096 12.1 572.763 11.6 569.496 11.6C568.763 11.6 567.263 11.6667 564.996 11.8V25.5Z" fill="#FFD703"/>
</svg>
